<svg xmlns="http://www.w3.org/2000/svg" version="1.1" xmlns:xlink="http://www.w3.org/1999/xlink" xmlns:svgjs="http://svgjs.dev/svgjs" width="1500" height="340" viewBox="0 0 1500 340"><g transform="matrix(1,0,0,1,-0.9090909090909918,0.07970577287161973)"><svg viewBox="0 0 396 90" data-background-color="#efefef" preserveAspectRatio="xMidYMid meet" height="340" width="1500" xmlns="http://www.w3.org/2000/svg" xmlns:xlink="http://www.w3.org/1999/xlink"><g id="tight-bounds" transform="matrix(1,0,0,1,0.2400000000000091,-0.021098586936602715)"><svg viewBox="0 0 395.52 90.04219717387322" height="90.04219717387322" width="395.52"><g><svg viewBox="0 0 537.8209413432147 122.43775092198584" height="90.04219717387322" width="395.52"><g transform="matrix(1,0,0,1,0,16.92157049645391)"><svg viewBox="0 0 395.52000000000004 88.59460992907802" height="88.59460992907802" width="395.52000000000004"><g id="textblocktransform"><svg viewBox="0 0 395.52000000000004 88.59460992907802" height="88.59460992907802" width="395.52000000000004" id="textblock"><g><svg viewBox="0 0 395.52000000000004 88.59460992907802" height="88.59460992907802" width="395.52000000000004"><g transform="matrix(1,0,0,1,0,0)"><svg width="395.52000000000004" viewBox="3.6 -37.6 167.84 37.9" height="88.59460992907802" data-palette-color="#d94e28"><g class="wordmark-text-0" data-fill-palette-color="primary" id="text-0"><path d="M5.95 0.1L5.55 0.1Q4.45 0.1 4.03-0.2 3.6-0.5 3.6-1L3.6-1 3.6-36.5Q3.6-37.6 5.5-37.6L5.5-37.6 6-37.6Q7.9-37.6 7.9-36.5L7.9-36.5 7.9-23.1Q8.9-24.5 10.55-25.48 12.2-26.45 14.2-26.45L14.2-26.45Q15.95-26.45 17.45-25.75 18.95-25.05 19.88-23.55 20.8-22.05 20.8-19.6L20.8-19.6 20.8-1Q20.8-0.5 20.38-0.2 19.95 0.1 18.85 0.1L18.85 0.1 18.45 0.1Q17.35 0.1 16.93-0.2 16.5-0.5 16.5-1L16.5-1 16.5-18.75Q16.5-20.65 15.58-21.73 14.65-22.8 12.75-22.8L12.75-22.8Q11.45-22.8 10.4-22.18 9.35-21.55 8.72-20.73 8.1-19.9 7.9-19.3L7.9-19.3 7.9-1Q7.9-0.5 7.48-0.2 7.05 0.1 5.95 0.1L5.95 0.1ZM30.2 0.1L29.8 0.1Q28.7 0.1 28.27-0.2 27.85-0.5 27.85-1L27.85-1 27.85-25.15Q27.85-25.7 28.27-25.98 28.7-26.25 29.8-26.25L29.8-26.25 30.2-26.25Q31.3-26.25 31.72-25.98 32.15-25.7 32.15-25.15L32.15-25.15 32.15-1Q32.15-0.5 31.72-0.2 31.3 0.1 30.2 0.1L30.2 0.1ZM30-29.75L30-29.75Q28.8-29.75 28.3-30.05 27.8-30.35 27.8-30.85L27.8-30.85 27.8-33.85Q27.8-34.35 28.3-34.65 28.8-34.95 30-34.95L30-34.95Q31.2-34.95 31.7-34.68 32.2-34.4 32.2-33.85L32.2-33.85 32.2-30.85Q32.2-30.35 31.7-30.05 31.2-29.75 30-29.75ZM45.35 0.3L45.35 0.3Q44.3 0.3 43-0.15 41.7-0.6 40.77-1.93 39.85-3.25 39.85-5.8L39.85-5.8 39.85-22.55 37.85-22.55Q36.85-22.55 36.85-24.05L36.85-24.05 36.85-24.65Q36.85-26.15 37.85-26.15L37.85-26.15 39.85-26.15 40.45-31.4Q40.6-32.5 42-32.5L42-32.5 42.4-32.5Q43.4-32.5 43.77-32.23 44.15-31.95 44.15-31.4L44.15-31.4 44.15-26.15 47.5-26.15Q48.5-26.15 48.5-24.65L48.5-24.65 48.5-24.05Q48.5-22.55 47.5-22.55L47.5-22.55 44.15-22.55 44.15-6.3Q44.15-4.55 44.52-3.93 44.9-3.3 46-3.3L46-3.3Q46.9-3.3 47.32-3.43 47.75-3.55 48-3.55L48-3.55Q48.35-3.55 48.52-3.05 48.7-2.55 48.75-1.98 48.8-1.4 48.8-1.15L48.8-1.15Q48.8-0.65 48.2-0.33 47.6 0 46.8 0.15 46 0.3 45.35 0.3Z" fill="#d94e28" data-fill-palette-color="primary"></path><path d="M64.7 0.3L64.7 0.3Q61.5 0.3 59.57-1.68 57.65-3.65 57.65-7.45L57.65-7.45Q57.65-10.45 58.87-12.28 60.1-14.1 62.07-15.03 64.05-15.95 66.4-16.25 68.75-16.55 71-16.55L71-16.55 71-18.95Q71-20.5 70.07-21.68 69.15-22.85 66.75-22.85L66.75-22.85Q64.9-22.85 63.37-22.45 61.85-22.05 60.9-21.63 59.95-21.2 59.65-21.2L59.65-21.2Q59.15-21.2 58.85-22.15 58.55-23.1 58.55-23.7L58.55-23.7Q58.55-24.15 59.8-24.8 61.05-25.45 62.95-25.95 64.85-26.45 66.8-26.45L66.8-26.45Q70.8-26.45 73.05-24.45 75.3-22.45 75.3-18.9L75.3-18.9 75.3-7.4Q75.3-4.35 75.55-2.93 75.8-1.5 75.8-1.15L75.8-1.15Q75.8-0.55 74.75-0.25 73.7 0.05 72.9 0.05L72.9 0.05Q72.25 0.05 71.97-0.68 71.7-1.4 71.35-3.15L71.35-3.15Q70.1-1.55 68.47-0.63 66.85 0.3 64.7 0.3ZM65.5-3.25L65.5-3.25Q67.25-3.25 68.62-4.1 70-4.95 71-6.5L71-6.5 71-13Q66.1-13 64.07-11.88 62.05-10.75 62.05-7.5L62.05-7.5Q62.05-3.25 65.5-3.25ZM84.85 0.1L84.44 0.1Q83.35 0.1 82.92-0.2 82.5-0.5 82.5-1L82.5-1 82.5-18.65Q82.5-21.75 82.25-23.18 82-24.6 82-25.1L82-25.1Q82-25.65 83.04-25.88 84.1-26.1 84.89-26.1L84.89-26.1Q85.6-26.1 85.87-25.35 86.14-24.6 86.5-22.7L86.5-22.7Q87.75-24.45 89.42-25.45 91.1-26.45 93.1-26.45L93.1-26.45Q94.85-26.45 96.35-25.75 97.85-25.05 98.77-23.55 99.69-22.05 99.69-19.6L99.69-19.6 99.69-1Q99.69-0.5 99.27-0.2 98.85 0.1 97.75 0.1L97.75 0.1 97.35 0.1Q96.25 0.1 95.82-0.2 95.39-0.5 95.39-1L95.39-1 95.39-18.75Q95.39-20.65 94.47-21.73 93.54-22.8 91.64-22.8L91.64-22.8Q90.35-22.8 89.29-22.18 88.25-21.55 87.62-20.73 87-19.9 86.79-19.3L86.79-19.3 86.79-1Q86.79-0.5 86.37-0.2 85.94 0.1 84.85 0.1L84.85 0.1ZM109.09 0.1L108.69 0.1Q107.59 0.1 107.17-0.2 106.74-0.5 106.74-1L106.74-1 106.74-25.15Q106.74-25.7 107.17-25.98 107.59-26.25 108.69-26.25L108.69-26.25 109.09-26.25Q110.19-26.25 110.62-25.98 111.04-25.7 111.04-25.15L111.04-25.15 111.04-1Q111.04-0.5 110.62-0.2 110.19 0.1 109.09 0.1L109.09 0.1ZM108.89-29.75L108.89-29.75Q107.69-29.75 107.19-30.05 106.69-30.35 106.69-30.85L106.69-30.85 106.69-33.85Q106.69-34.35 107.19-34.65 107.69-34.95 108.89-34.95L108.89-34.95Q110.09-34.95 110.59-34.68 111.09-34.4 111.09-33.85L111.09-33.85 111.09-30.85Q111.09-30.35 110.59-30.05 110.09-29.75 108.89-29.75ZM120.59 0.1L120.19 0.1Q119.09 0.1 118.67-0.2 118.24-0.5 118.24-1L118.24-1 118.24-18.65Q118.24-21.75 117.99-23.18 117.74-24.6 117.74-25.1L117.74-25.1Q117.74-25.65 118.79-25.88 119.84-26.1 120.64-26.1L120.64-26.1Q121.34-26.1 121.61-25.35 121.89-24.6 122.24-22.7L122.24-22.7Q123.44-24.45 125.04-25.45 126.64-26.45 128.59-26.45L128.59-26.45Q130.34-26.45 132.04-25.55 133.74-24.65 134.44-22.45L134.44-22.45Q135.59-24.25 137.24-25.35 138.89-26.45 140.89-26.45L140.89-26.45Q142.54-26.45 143.99-25.75 145.44-25.05 146.32-23.55 147.19-22.05 147.19-19.6L147.19-19.6 147.19-1Q147.19-0.5 146.77-0.2 146.34 0.1 145.24 0.1L145.24 0.1 144.84 0.1Q143.74 0.1 143.32-0.2 142.89-0.5 142.89-1L142.89-1 142.89-18.75Q142.89-20.65 142.04-21.73 141.19-22.8 139.44-22.8L139.44-22.8Q137.74-22.8 136.52-21.58 135.29-20.35 134.84-19.15L134.84-19.15Q134.84-19 134.84-18.82 134.84-18.65 134.84-18.5L134.84-18.5 134.84-1Q134.84-0.5 134.42-0.2 133.99 0.1 132.89 0.1L132.89 0.1 132.49 0.1Q131.39 0.1 130.97-0.2 130.54-0.5 130.54-1L130.54-1 130.54-18.75Q130.54-20.65 129.72-21.73 128.89-22.8 127.14-22.8L127.14-22.8Q125.89-22.8 124.92-22.18 123.94-21.55 123.34-20.73 122.74-19.9 122.54-19.3L122.54-19.3 122.54-1Q122.54-0.5 122.11-0.2 121.69 0.1 120.59 0.1L120.59 0.1ZM162.94 0.3L162.94 0.3Q157.94 0.3 155.39-2.95 152.84-6.2 152.84-12.9L152.84-12.9Q152.84-19.55 155.34-23 157.84-26.45 162.69-26.45L162.69-26.45Q167.04-26.45 169.24-23.1 171.44-19.75 171.44-13.35L171.44-13.35Q171.44-11.35 169.69-11.35L169.69-11.35 157.24-11.35Q157.39-7.2 158.79-5.25 160.19-3.3 163.24-3.3L163.24-3.3Q164.99-3.3 166.34-3.8 167.69-4.3 168.56-4.78 169.44-5.25 169.69-5.25L169.69-5.25Q170.19-5.25 170.51-4.38 170.84-3.5 170.84-2.9L170.84-2.9Q170.84-2.45 169.79-1.68 168.74-0.9 166.96-0.3 165.19 0.3 162.94 0.3ZM157.29-14.95L157.29-14.95 167.19-14.95Q167.19-22.85 162.54-22.85L162.54-22.85Q157.44-22.85 157.29-14.95Z" fill="#f9744c" data-fill-palette-color="accent"></path></g></svg></g></svg></g></svg></g></svg></g><g transform="matrix(1,0,0,1,416.43506113361707,0)"><svg viewBox="0 0 121.38588020959766 122.43775092198584" height="122.43775092198584" width="121.38588020959766"><g><svg xmlns="http://www.w3.org/2000/svg" xmlns:xlink="http://www.w3.org/1999/xlink" version="1.1" x="0" y="0" viewBox="21.2 20.9 57.7 58.199999999999996" enable-background="new 0 0 100 100" xml:space="preserve" height="122.43775092198584" width="121.38588020959766" class="icon-icon-0" data-fill-palette-color="accent" id="icon-0"><g fill="#f9744c" data-fill-palette-color="accent"><path d="M58.7 79.1H74.3C76.8 79.1 78.9 77 78.9 74.5V41.2C78.9 38.7 76.8 36.6 74.3 36.6H58.7C56.2 36.6 54.1 38.7 54.1 41.2V74.5C54.2 77.1 56.2 79.1 58.7 79.1M66.5 77.8C65.5 77.8 64.7 77 64.7 76S65.5 74.2 66.5 74.2 68.3 75 68.3 76 67.5 77.8 66.5 77.8M57.7 42.9H75.4V72.9H57.7zM25.5 27.2H58.2V33.2H62.5V25.6C62.5 23.7 61.3 22 59.6 21.3 59 21.1 58.4 20.9 57.8 20.9H25.9C25.3 20.9 24.6 21 24.1 21.3 22.4 22 21.2 23.7 21.2 25.6V74.4C21.2 77 23.3 79.1 25.9 79.1H52.2C51.3 77.8 50.8 76.2 50.8 74.5V71.8H25.4zM41.7 73.8C42.7 73.8 43.5 74.6 43.5 75.6S42.7 77.4 41.7 77.4 39.9 76.6 39.9 75.6 40.8 73.8 41.7 73.8" fill="#f9744c" data-fill-palette-color="accent"></path></g></svg></g></svg></g></svg></g><defs></defs></svg><rect width="395.52" height="90.04219717387322" fill="none" stroke="none" visibility="hidden"></rect></g></svg></g></svg>